PathFileType	4	(X/Y/Z)	C:/Users/beibeiliu/ov580/test_trc\sequence.15_training_dense_left.trc
DataRate	CameraRate	NumFrames	NumMarkers	Units	OrigDataRate	OrigDataStartFrame	OrigNumFrames
120	120	12	19	mm	120	26	153
Frame#	Time	ThumbCMC			ThumbMCP			ThumbIP			ThumbTip			IndexMCP			IndexPIP			IndexTip			MiddleMCP			MiddlePIP			MiddleTip			RingMCP			RingPIP			RingTip			PinkyMCP			PinkyPIP			PinkyTip			BackHand1			BackHand2			BackHand3	
		X0	Y0	Z0	X1	Y1	Z1	X2	Y2	Z2	X3	Y3	Z3	X4	Y4	Z4	X5	Y5	Z5	X6	Y6	Z6	X7	Y7	Z7	X8	Y8	Z8	X9	Y9	Z9	X10	Y10	Z10	X11	Y11	Z11	X12	Y12	Z12	X13	Y13	Z13	X14	Y14	Z14	X15	Y15	Z15	X16	Y16	Z16	X17	Y17	Z17	X18	Y18	Z18	
25	0.208333	-154.221	22.0026	131.983	-117.025	33.4196	124.475	-91.2141	22.0998	108.981	-84.3255	-5.72258	104.146	-134.616	4.99053	58.8763	-116.485	9.85459	39.336	-96.7945	11.2577	23.9003	-129.705	-17.8292	58.5292	-112.292	-17.9097	36.6887	-88.6378	-20.3672	18.5528	-117.52	-35.6108	71.5289	-93.6331	-34.6888	53.5877	-67.0093	-28.4213	43.9047	-111.235	-40.4394	88.179	-84.4692	-31.1397	81.5836	-71.7493	-8.35665	97.1551	-154.838	-37.8402	113.285	-171.524	-34.1866	132.202	-172.941	-9.15487	114.264	
26	0.216667	-179.173	17.3077	120.223	-148.539	34.8249	106.605	-125.079	28.406	91.7222	-110.568	6.53306	91.6191	-164.002	-3.29239	53.7365	-146.653	-1.39931	31.9038	-130.351	5.47871	14.7931	-144.709	-27.9225	54.5876	-133.165	-23.2477	31.6536	-114.253	-19.4981	10.1737	-130.58	-32.6234	64.2276	-110.311	-26.8889	44.7207	-89.8952	-12.5312	29.2649	-117.721	-37.7989	85.5141	-100.177	-18.0536	70.0662	-91.3048	8.88508	77.2782	-155.229	-43.282	109.191	-171.997	-46.2877	138.09	-186.057	-22.6434	111.143	
27	0.225	-200.729	-4.81679	118.348	-181.561	21.3007	97.925	-156.94	18.8123	74.8901	-134.511	1.95888	72.6786	-186.058	-30.5766	53.953	-178.634	-23.2959	24.5811	-161.32	-16.4347	7.28178	-167.742	-45.6462	51.1821	-153.417	-45.5857	27.6629	-141.193	-35.9963	-0.813325	-145.714	-47.3373	64.349	-130.342	-38.1832	38.3459	-117.762	-24.4199	21.6712	-130.281	-45.4934	81.5088	-120.9	-28.5731	62.0104	-120.933	3.82153	62.4891	-168.292	-52.5917	111.503	-175.095	-55.0607	141.331	-196.79	-44.0536	112.629	
28	0.233333	-220.076	-20.9888	117.052	-202.47	-0.761681	96.6144	-183.309	-0.301773	72.3639	-161.78	-13.5131	66.6343	-209.987	-55.616	54.4798	-203.702	-51.8287	29.3887	-190.821	-42.2529	2.23646	-191.331	-67.482	57.5282	-181.255	-69.4531	26.6213	-169.355	-63.6292	3.76361	-167.71	-66.0286	60.862	-158.772	-60.2035	34.3003	-149.811	-45.8594	14.593	-152.837	-60.6057	77.505	-142.062	-43.1615	54.1653	-146.092	-12.7627	50.8398	-178.162	-71.4514	111.577	-187.235	-68.0671	145.113	-212.307	-63.3366	120.962	
29	0.241667	-231.38	-31.3518	122.963	-215.367	-16.1368	93.7522	-202.645	-12.3661	66.95	-178.526	-29.2328	58.5823	-228.55	-74.1335	63.0086	-227.993	-73.1089	33.9105	-220.564	-65.0228	6.20356	-207.238	-89.0704	61.8808	-203.059	-91.6491	33.0843	-195.846	-86.8291	1.69418	-188.109	-84.2063	64.7635	-180.147	-81.4769	37.366	-170.725	-69.1464	14.1971	-172.205	-76.1723	77.1553	-163.925	-63.0199	50.2969	-168.307	-33.5954	44.7995	-197.019	-81.0563	118.893	-198.222	-75.6213	145.813	-226.727	-73.1634	127.425	
30	0.25	-239.579	-36.8903	121.948	-227.722	-18.6683	90.7048	-213.2	-21.2693	70.1237	-192.418	-39.0876	59.2509	-249.654	-80.2765	63.8981	-244.328	-81.5381	40.6431	-236.345	-75.7851	9.81772	-224.913	-94.5665	68.9986	-222.018	-102.023	38.0713	-215.968	-98.9866	9.97651	-205.318	-94.5473	67.3	-196.852	-92.803	38.6503	-196.26	-78.603	13.9732	-186.511	-85.2646	76.487	-180.448	-74.5156	52.109	-184.502	-41.2302	41.8089	-205.862	-89.2304	119.63	-206.805	-78.8226	149.745	-236.812	-76.6097	131.024	
31	0.258333	-250.49	-24.6203	123.99	-235.992	-7.3097	90.6544	-224.559	-13.1881	68.4566	-207.229	-30.8137	51.9456	-265.329	-69.9608	65.4356	-267.194	-68.9819	40.664	-260.519	-65.449	12.7503	-248.987	-87.6778	65.8276	-247.724	-93.0202	37.6287	-244.803	-92.1698	7.29672	-223.804	-87.8642	69.3338	-222.055	-89.0649	42.2243	-217.534	-76.8815	13.334	-203.634	-82.1968	78.0719	-198.32	-71.2768	48.2453	-199.178	-43.6558	41.3486	-224.71	-81.5869	120.193	-223.105	-70.1421	149.471	-255.244	-63.0491	130.323	
32	0.266667	-253.592	-7.34926	121.301	-236.379	6.19444	91.4307	-225.305	2.58077	64.3502	-213.133	-21.2414	52.8989	-279.734	-44.8955	68.2549	-278.185	-46.5506	37.9293	-270.338	-44.56	11.4859	-263.445	-67.8291	66.6003	-266.176	-75.3028	37.7059	-263.512	-72.3261	6.76534	-244.612	-73.0665	66.8266	-239.894	-76.8309	39.6739	-233.604	-65.9504	12.392	-219.695	-73.2009	73.0009	-217.29	-60.7487	46.2423	-210.667	-29.1125	43.5896	-239.516	-69.1334	116.4	-235.611	-58.21	146.624	-260.398	-47.1686	129.64	
33	0.275	-245.171	14.6122	120.055	-223.856	21.6165	87.825	-214.061	11.633	59.2806	-208.931	-10.4695	50.9485	-275.837	-17.7007	62.4194	-275.661	-17.5628	33.5797	-266.791	-14.1765	7.20944	-272.331	-40.2121	58.8175	-274.145	-45.7917	32.3936	-270.563	-44.3431	3.63461	-254.583	-51.9328	59.4384	-250.275	-55.1788	34.0352	-239.55	-45.9692	5.48482	-231.94	-60.3595	64.567	-222.924	-46.3284	42.3672	-205.042	-21.1712	40.644	-251.284	-48.6374	111.274	-244.813	-45.1368	138.315	-265.465	-25.2019	124.516	
34	0.283333	-221.124	28.9829	118.552	-196.226	32.6829	88.471	-191.372	20.2881	62.9787	-195.691	-5.42057	51.3415	-258.052	16.7691	58.2405	-254.263	16.3802	25.3159	-245.784	14.5691	4.67586	-263.939	-7.6758	51.9152	-264.807	-12.1197	23.3193	-258.896	-11.3277	-7.22557	-251.077	-28.503	55.4947	-248.563	-27.62	25.4123	-231.908	-24.8751	-0.243414	-232.532	-42.0148	64.4909	-217.536	-32.527	37.0376	-194.304	-12.5396	40.3795	-249.527	-25.2245	105.8	-242.673	-26.1009	136.921	-253.586	0.627266	119.113	
35	0.291667	-191.786	34.9879	120.031	-169.905	29.3382	87.9683	-167.43	16.9282	65.2633	-177.683	-6.08366	53.5722	-227.58	38.2368	53.4501	-220.206	40.4678	22.1275	-210.014	33.5075	2.27685	-240.78	11.8867	46.7427	-239.931	14.2141	18.5352	-233.771	13.2409	-10.3511	-235.195	-9.47431	49.824	-229.492	-10.365	19.7803	-212.885	-11.0781	-1.35623	-225.439	-26.6118	54.9764	-203.156	-23.6575	34.6075	-176.064	-17.5651	42.1943	-239.288	-9.0034	98.9979	-236.219	-11.3369	130.549	-231.371	19.1797	116.679	
36	0.3	-163.636	26.3309	122.71	-143.533	10.7298	94.654	-142.078	-2.38812	71.8552	-157.153	-21.0484	53.5748	-189.275	35.2851	52.3202	-182.021	34.3763	26.8851	-169.698	23.4347	3.68431	-208.064	20.9422	47.8243	-205.486	21.7539	20.3989	-199.638	12.3852	-8.63973	-211.69	-1.61624	50.672	-205.244	-5.6074	23.7609	-183.563	-13.3863	-1.97918	-208.717	-19.5943	55.5219	-188.31	-25.7452	38.364	-158.587	-31.8979	49.742	-221.416	-1.04056	100.437	-222.629	0.784054	127.805	-205.772	25.7496	114.963	
